Coordinates
version=1
nRows=21
nColumns=22
inDegrees=yes

Units are S.I. units (second, meters, Newtons, ...)
If the header above contains a line with 'inDegrees', this indicates whether rotational values are in degrees (yes) or radians (no).

endheader
time	pelvis_tilt	pelvis_list	pelvis_rotation	pelvis_tx	pelvis_ty	pelvis_tz	hip_flexion_r	hip_adduction_r	hip_rotation_r	knee_angle_r	ankle_angle_r	subtalar_angle_r	hip_flexion_l	hip_adduction_l	hip_rotation_l	knee_angle_l	ankle_angle_l	subtalar_angle_l	lumbar_extension	lumbar_bending	lumbar_rotation
      4.74000000	      3.98868176	      4.72712719	    171.12321578	     -0.14022695	      0.85953994	     -0.47872800	      2.61924051	      6.35020514	     24.09103721	    -22.28249900	     27.33630299	    -17.36077968	     39.17921962	    -14.78274133	     -4.41600677	    -23.84848548	      8.10517718	     -0.20274896	     -2.98410396	      1.62733230	     22.50340436
      4.75000000	      4.16009399	      4.79241112	    170.66700163	     -0.14942350	      0.85788598	     -0.47899248	      1.94369859	      6.21152126	     24.38467246	    -21.89548967	     27.67221414	    -17.06489115	     39.36849562	    -15.18970000	     -3.87712254	    -22.05452023	      8.07991772	      0.20365710	     -2.64063107	      1.36955065	     22.86970489
      4.76000000	      4.32844164	      4.83162169	    170.23301292	     -0.15870434	      0.85612747	     -0.47914685	      1.27651363	      6.02804769	     24.64818733	    -21.52243730	     28.00776923	    -16.70357629	     39.55181732	    -15.57303676	     -3.15971045	    -20.47172809	      8.03661384	      0.66094598	     -2.30458724	      1.07829986	     23.19138774
      4.77000000	      4.47359815	      4.84897063	    169.81559481	     -0.16805697	      0.85430184	     -0.47921537	      0.59614130	      5.80505456	     24.89843147	    -21.16296308	     28.31962213	    -16.30454444	     39.69523408	    -15.94894665	     -2.32016232	    -19.09108170	      7.98221812	      1.12359493	     -2.00465296	      0.74956540	     23.46868706
      4.78000000	      4.58815144	      4.84688406	    169.41603314	     -0.17751696	      0.85240933	     -0.47920807	     -0.10860062	      5.54382187	     25.13149869	    -20.81883203	     28.62178947	    -15.85375449	     39.79549772	    -16.32763844	     -1.43143264	    -17.93484358	      7.92576726	      1.58898603	     -1.74213144	      0.38429259	     23.70355823
      4.79000000	      4.66804287	      4.82885194	    169.02608717	     -0.18707349	      0.85044734	     -0.47913510	     -0.84369655	      5.24605240	     25.35254371	    -20.48480957	     28.92488616	    -15.35745938	     39.85502999	    -16.71984450	     -0.58314616	    -17.02264557	      7.87581284	      2.01967434	     -1.52595648	     -0.01717935	     23.91158694
      4.80000000	      4.70986774	      4.79830161	    168.64697857	     -0.19674450	      0.84841005	     -0.47897559	     -1.61454640	      4.91217528	     25.55579431	    -20.16274617	     29.24261464	    -14.80664005	     39.88446863	    -17.12519544	      0.14314880	    -16.38380029	      7.83304639	      2.38936092	     -1.35868041	     -0.45001770	     24.09774072
      4.81000000	      4.70102106	      4.77468917	    168.28034407	     -0.20655617	      0.84632620	     -0.47871266	     -2.44532623	      4.55793943	     25.73865410	    -19.84312325	     29.51152573	    -14.27436827	     39.86140327	    -17.54906744	      0.71520326	    -16.00217512	      7.83380622	      2.62792384	     -1.25720915	     -0.89306909	     24.26289788
      4.82000000	      4.65177662	      4.75793558	    167.92499506	     -0.21652852	      0.84416729	     -0.47832328	     -3.32625807	      4.18099050	     25.88147832	    -19.52608612	     29.78420275	    -13.71702618	     39.80038864	    -17.98593275	      1.08204882	    -15.87853464	      7.86733902	      2.75174296	     -1.20707824	     -1.33908809	     24.41196985
      4.83000000	      4.57177987	      4.76633691	    167.58217929	     -0.22665163	      0.84191666	     -0.47779481	     -4.25692906	      3.80369879	     25.99999127	    -19.20612350	     30.04946650	    -13.18166175	     39.71608055	    -18.44295931	      1.25723894	    -16.00669177	      7.92482863	      2.73682740	     -1.20623742	     -1.76542618	     24.54932139
      4.84000000	      4.46765602	      4.80689363	    167.25092220	     -0.23693977	      0.83956669	     -0.47710353	     -5.23334978	      3.43427756	     26.08032977	    -18.88587108	     30.29328797	    -12.70080575	     39.60669573	    -18.91799438	      1.25321859	    -16.35876050	      8.02012464	      2.60447180	     -1.24698895	     -2.15701475	     24.68485238
      4.85000000	      4.36014443	      4.87359686	    166.94237902	     -0.24739424	      0.83708932	     -0.47621911	     -6.22932444	      3.07261873	     26.08354515	    -18.57364039	     30.52515118	    -12.24815484	     39.48270119	    -19.39259398	      1.09837041	    -16.88516712	      8.12219796	      2.37823784	     -1.30703813	     -2.51380064	     24.80958814
      4.86000000	      4.26467289	      4.97385792	    166.66234658	     -0.25799978	      0.83448037	     -0.47511947	     -7.23347460	      2.73283134	     26.00197431	    -18.26607594	     30.73617838	    -11.85354226	     39.36079608	    -19.86422439	      0.82004186	    -17.55192451	      8.18373576	      2.10642606	     -1.37350653	     -2.82109553	     24.92531056
      4.87000000	      4.19619302	      5.09028770	    166.42760433	     -0.26874352	      0.83174717	     -0.47376071	     -8.21806614	      2.40559044	     25.79902597	    -17.97621809	     30.93061571	    -11.47332825	     39.26185498	    -20.30075412	      0.43556055	    -18.32306999	      8.14485163	      1.82535031	     -1.42790443	     -3.09096673	     25.00688497
      4.88000000	      4.15674984	      5.25906325	    166.23343330	     -0.27955210	      0.82893864	     -0.47218705	     -9.18428488	      2.14225537	     25.52669559	    -17.71299152	     31.04624563	    -11.21462940	     39.20370384	    -20.73980015	     -0.02429745	    -19.18229649	      7.92308651	      1.68962796	     -1.48671410	     -3.28753632	     25.08042141
      4.89000000	      4.15547380	      5.40530530	    166.12117362	     -0.29042374	      0.82607871	     -0.47029917	    -10.09412863	      1.87122870	     25.13161320	    -17.49262991	     31.10224208	    -10.94471714	     39.22461773	    -21.07849550	     -0.52283717	    -20.11693777	      7.45040503	      1.70054698	     -1.52352049	     -3.49067136	     25.09133094
      4.90000000	      4.19263971	      5.53374075	    166.09348116	     -0.30126017	      0.82325815	     -0.46811762	    -10.90264251	      1.61684022	     24.60267808	    -17.38571008	     31.10045618	    -10.60480744	     39.32850822	    -21.31913392	     -1.01825198	    -21.07895634	      6.57636535	      1.97856946	     -1.55010016	     -3.69844032	     25.05201700
      4.91000000	      4.27204455	      5.63128148	    166.15085397	     -0.31199920	      0.82053205	     -0.46566118	    -11.59011771	      1.37906951	     24.05566720	    -17.41659138	     30.99454175	    -10.13901741	     39.57499292	    -21.45267591	     -1.46875537	    -22.13334750	      5.35086282	      2.67625557	     -1.56672540	     -3.92935904	     24.95653376
      4.92000000	      4.38140125	      5.66275984	    166.33860395	     -0.32263690	      0.81801112	     -0.46286598	    -12.14992529	      1.12700443	     23.41864467	    -17.59357029	     30.77262007	     -9.66896455	     39.94755775	    -21.40595871	     -1.78140042	    -23.22747135	      3.74992169	      3.66352710	     -1.58182957	     -4.22791038	     24.77837999
      4.93000000	      4.50301630	      5.60569539	    166.65333656	     -0.33313859	      0.81579310	     -0.45975943	    -12.56908905	      0.84325758	     22.73370910	    -17.96312437	     30.42708202	     -9.11139150	     40.42626372	    -21.15624758	     -1.93173153	    -24.37469486	      1.91120319	      4.90494110	     -1.61426469	     -4.62734005	     24.52664693
      4.94000000	      4.61553259	      5.44295978	    167.09623346	     -0.34350951	      0.81397293	     -0.45636617	    -12.85492974	      0.50975613	     22.00877052	    -18.54577194	     29.94412186	     -8.46926961	     40.96376632	    -20.68176532	     -1.91184767	    -25.57092646	      0.02481766	      6.25294245	     -1.68417327	     -5.15349037	     24.20972640
